<svg xmlns="http://www.w3.org/2000/svg" fill="none" viewBox="0 0 80 24" aria-hidden="true" tabindex="-1"><path fill="#F26922" d="M45.726 4.419h4.317c3.002 0 4.143.928 4.143 2.85 0 2.158-1.243 3.123-4.143 3.123h-4.317V4.419ZM40 0v22.071h5.726v-7.293H48.8L54.53 24h6.66l-6.342-10.046c3.484-.72 5.382-3.393 5.382-6.754 0-4.563-3.379-7.196-9.938-7.196L40 0Z"></path><path fill="#F26922" d="M60.107 0v15.544c0 5.372 3.466 8.456 10.064 8.456 6.599 0 9.83-3.184 9.83-8.556V0h-5.372v14.637c0 2.879-1.394 4.678-4.458 4.678s-4.422-1.777-4.422-4.678V0h-5.642Z"></path><path fill="#506C7F" d="M5.632 4.419h4.246c2.953 0 4.075.928 4.075 2.85 0 2.158-1.221 3.123-4.075 3.123H5.632V4.419ZM0 0v24h5.632v-9.222h3.024L14.292 24h6.551l-6.238-10.046c3.427-.72 5.294-3.393 5.294-6.754 0-4.563-3.324-7.196-9.775-7.196L0 0Z"></path><path fill="#506C7F" d="M40.076 4.566C37.818 1.48 34.704 0 30.771 0 23.885 0 19.27 4.634 19.27 12.1c0 7.301 4.812 11.9 11.367 11.9 3.64 0 6.75-1.41 9.469-4.368v-8.78H29.72v4.207h4.952v2.763a6.842 6.842 0 0 1-3.919 1.284c-3.562 0-5.77-2.338-5.77-6.908 0-4.933 2.23-7.466 5.938-7.466 2.262 0 4.129 1.054 5.635 3.126l3.52-3.292Z"></path><path fill="#506C7F" d="M42.918 24c.61 0 1.207-.183 1.715-.525a3.11 3.11 0 0 0 1.136-1.4 3.145 3.145 0 0 0-.67-3.396 3.056 3.056 0 0 0-3.363-.673 3.092 3.092 0 0 0-1.384 1.15 3.138 3.138 0 0 0-.284 2.924c.156.377.383.72.67 1.01a3.08 3.08 0 0 0 2.18.91Z"></path></svg>